<?xml version="1.0" encoding="UTF-8"?>
<!DOCTYPE svg PUBLIC "-//W3C//DTD SVG 1.1//EN" "http://www.w3.org/Graphics/SVG/1.1/DTD/svg11.dtd">
<svg xmlns="http://www.w3.org/2000/svg" version="1.1" width="799px" height="566px" style="shape-rendering:geometricPrecision; text-rendering:geometricPrecision; image-rendering:optimizeQuality; fill-rule:evenodd; clip-rule:evenodd" xmlns:xlink="http://www.w3.org/1999/xlink">
<g><path style="opacity:1" fill="#fefefe" d="M -0.5,-0.5 C 265.833,-0.5 532.167,-0.5 798.5,-0.5C 798.5,188.167 798.5,376.833 798.5,565.5C 532.167,565.5 265.833,565.5 -0.5,565.5C -0.5,376.833 -0.5,188.167 -0.5,-0.5 Z"/></g>
<g><path style="opacity:1" fill="#241f21" d="M 380.5,90.5 C 375.405,109.095 363.405,120.261 344.5,124C 313.833,124.667 283.167,124.667 252.5,124C 240.175,121.846 230.508,115.68 223.5,105.5C 223.335,103.332 223.668,100.999 224.5,98.5C 226.5,97.8333 228.5,97.1667 230.5,96.5C 230.5,95.1667 230.5,93.8333 230.5,92.5C 233.167,92.5 235.833,92.5 238.5,92.5C 238.5,91.1667 238.5,89.8333 238.5,88.5C 239.833,88.5 241.167,88.5 242.5,88.5C 242.5,86.5 242.5,84.5 242.5,82.5C 240.11,82.1449 237.777,81.4783 235.5,80.5C 234.5,80.8333 233.5,81.1667 232.5,81.5C 230.841,85.1322 229.174,88.7988 227.5,92.5C 226.571,91.3112 226.238,89.9778 226.5,88.5C 225.167,88.5 223.833,88.5 222.5,88.5C 222.5,84.5 222.5,80.5 222.5,76.5C 225.5,76.8333 226.833,75.5 226.5,72.5C 229.167,72.5 231.833,72.5 234.5,72.5C 234.5,71.1667 234.5,69.8333 234.5,68.5C 241.5,70.1667 244.167,67.5 242.5,60.5C 244.857,60.6633 247.19,60.4966 249.5,60C 250.337,58.9887 250.67,57.8221 250.5,56.5C 251.833,56.5 253.167,56.5 254.5,56.5C 254.5,52.5 254.5,48.5 254.5,44.5C 257.5,44.8333 258.833,43.5 258.5,40.5C 262.5,40.5 266.5,40.5 270.5,40.5C 270.33,41.8221 270.663,42.9887 271.5,44C 295.739,44.1719 319.906,44.6719 344,45.5C 345.599,43.9644 347.433,43.4644 349.5,44C 348.941,44.7247 348.608,45.5581 348.5,46.5C 350.119,49.6418 350.785,52.9752 350.5,56.5C 353.5,56.5 356.5,56.5 359.5,56.5C 359.351,55.448 359.517,54.448 360,53.5C 362.405,54.2744 364.905,54.7744 367.5,55C 366.167,55.3333 364.833,55.6667 363.5,56C 364.448,56.4828 365.448,56.6495 366.5,56.5C 366.5,61.8333 366.5,67.1667 366.5,72.5C 370.5,72.5 374.5,72.5 378.5,72.5C 378.351,73.552 378.517,74.552 379,75.5C 379.333,75.1667 379.667,74.8333 380,74.5C 380.499,79.8229 380.666,85.1563 380.5,90.5 Z"/></g>
<g><path style="opacity:1" fill="#262425" d="M 380.5,90.5 C 380.666,85.1563 380.499,79.8229 380,74.5C 379.667,74.8333 379.333,75.1667 379,75.5C 378.517,74.552 378.351,73.552 378.5,72.5C 374.5,72.5 370.5,72.5 366.5,72.5C 366.5,67.1667 366.5,61.8333 366.5,56.5C 365.448,56.6495 364.448,56.4828 363.5,56C 364.833,55.6667 366.167,55.3333 367.5,55C 364.905,54.7744 362.405,54.2744 360,53.5C 359.517,54.448 359.351,55.448 359.5,56.5C 356.5,56.5 353.5,56.5 350.5,56.5C 350.785,52.9752 350.119,49.6418 348.5,46.5C 348.608,45.5581 348.941,44.7247 349.5,44C 347.433,43.4644 345.599,43.9644 344,45.5C 319.906,44.6719 295.739,44.1719 271.5,44C 270.663,42.9887 270.33,41.8221 270.5,40.5C 266.5,40.5 262.5,40.5 258.5,40.5C 258.833,43.5 257.5,44.8333 254.5,44.5C 254.5,48.5 254.5,52.5 254.5,56.5C 253.167,56.5 251.833,56.5 250.5,56.5C 250.67,57.8221 250.337,58.9887 249.5,60C 247.19,60.4966 244.857,60.6633 242.5,60.5C 244.167,67.5 241.5,70.1667 234.5,68.5C 234.5,69.8333 234.5,71.1667 234.5,72.5C 231.833,72.5 229.167,72.5 226.5,72.5C 226.833,75.5 225.5,76.8333 222.5,76.5C 222.5,80.5 222.5,84.5 222.5,88.5C 223.833,88.5 225.167,88.5 226.5,88.5C 226.238,89.9778 226.571,91.3112 227.5,92.5C 229.174,88.7988 230.841,85.1322 232.5,81.5C 233.5,81.1667 234.5,80.8333 235.5,80.5C 237.777,81.4783 240.11,82.1449 242.5,82.5C 242.5,84.5 242.5,86.5 242.5,88.5C 241.167,88.5 239.833,88.5 238.5,88.5C 238.5,89.8333 238.5,91.1667 238.5,92.5C 235.833,92.5 233.167,92.5 230.5,92.5C 230.5,93.8333 230.5,95.1667 230.5,96.5C 228.5,97.1667 226.5,97.8333 224.5,98.5C 223.668,100.999 223.335,103.332 223.5,105.5C 220.984,102.466 218.984,99.1323 217.5,95.5C 215.654,87.2029 215.32,78.8695 216.5,70.5C 221.253,54.5794 231.587,44.0794 247.5,39C 279.127,37.3708 310.794,37.0375 342.5,38C 371.767,43.755 384.434,61.255 380.5,90.5 Z"/></g>
<g><path style="opacity:1" fill="#818384" d="M 649.5,37.5 C 680.502,37.3334 711.502,37.5 742.5,38C 768.166,43.9984 780.666,60.1651 780,86.5C 777.103,104.144 767.269,115.977 750.5,122C 747.211,122.882 743.877,123.548 740.5,124C 710.167,124.667 679.833,124.667 649.5,124C 630.315,119.482 618.482,107.649 614,88.5C 611.5,72.1805 616.333,58.5138 628.5,47.5C 635.198,43.3157 642.198,39.9824 649.5,37.5 Z"/></g>
<g><path style="opacity:1" fill="#bcbcbc" d="M 216.5,70.5 C 215.32,78.8695 215.654,87.2029 217.5,95.5C 215.134,90.898 214.134,85.898 214.5,80.5C 214.667,77.8333 214.833,75.1667 215,72.5C 215.278,71.5842 215.778,70.9175 216.5,70.5 Z"/></g>
<g><path style="opacity:1" fill="#241f21" d="M 170.5,147.5 C 175.279,149.891 179.279,153.224 182.5,157.5C 182.38,158.586 181.713,159.253 180.5,159.5C 178.199,158.604 175.866,158.438 173.5,159C 174.451,162.057 174.784,165.223 174.5,168.5C 178.514,168.334 182.514,168.501 186.5,169C 186.525,178.624 186.525,188.291 186.5,198C 186.892,199.011 187.559,199.511 188.5,199.5C 186.326,201.527 185.992,203.86 187.5,206.5C 185.712,206.215 184.045,206.548 182.5,207.5C 183.167,207.833 183.833,208.167 184.5,208.5C 182.803,209.364 181.637,210.697 181,212.5C 179.334,211.66 179.167,212.16 180.5,214C 178.481,213.848 176.481,213.348 174.5,212.5C 174.5,213.833 174.5,215.167 174.5,216.5C 132.165,216.667 89.832,216.5 47.5,216C 46.5223,209.59 46.189,203.09 46.5,196.5C 45.1667,196.5 43.8333,196.5 42.5,196.5C 42.5,192.5 42.5,188.5 42.5,184.5C 41.1667,184.5 39.8333,184.5 38.5,184.5C 38.5,183.167 38.5,181.833 38.5,180.5C 39.8333,180.5 41.1667,180.5 42.5,180.5C 42.5,179.167 42.5,177.833 42.5,176.5C 41.1667,176.5 39.8333,176.5 38.5,176.5C 38.5,175.167 38.5,173.833 38.5,172.5C 39.8221,172.67 40.9887,172.337 42,171.5C 42.4966,169.19 42.6633,166.857 42.5,164.5C 44.8568,164.663 47.1902,164.497 49.5,164C 50.1197,161.527 50.7864,159.027 51.5,156.5C 53.0583,161.694 54.0583,161.694 54.5,156.5C 55.8221,156.67 56.9887,156.337 58,155.5C 58.6667,153.5 59.3333,151.5 60,149.5C 60.4828,150.448 60.6495,151.448 60.5,152.5C 62.4918,152.328 64.1585,152.995 65.5,154.5C 65.8333,153.833 66.1667,153.167 66.5,152.5C 64.7725,150.452 62.7725,148.619 60.5,147C 61.4162,146.626 62.2496,146.126 63,145.5C 64.8886,146.097 66.7219,146.431 68.5,146.5C 68.9202,148.326 68.9202,150.326 68.5,152.5C 69.8333,152.5 71.1667,152.5 72.5,152.5C 73.1667,157.833 73.8333,157.833 74.5,152.5C 75.8333,152.5 77.1667,152.5 78.5,152.5C 78.5,151.167 78.5,149.833 78.5,148.5C 85.1667,148.5 91.8333,148.5 98.5,148.5C 98.5,149.833 98.5,151.167 98.5,152.5C 122.408,152.172 146.241,152.506 170,153.5C 171.399,152.773 172.899,152.273 174.5,152C 171.894,151.55 170.561,150.05 170.5,147.5 Z"/></g>
<g><path style="opacity:1" fill="#818384" d="M 459.5,142.5 C 491.168,142.333 522.835,142.5 554.5,143C 581.364,149.199 593.53,166.032 591,193.5C 586.383,210.786 575.549,222.286 558.5,228C 525.167,228.667 491.833,228.667 458.5,228C 434.417,220.243 423.584,203.743 426,178.5C 430.113,159.875 441.28,147.875 459.5,142.5 Z"/></g>
<g><path style="opacity:1" fill="#241f21" d="M 216.5,194.5 C 214.953,187.066 215.287,179.733 217.5,172.5C 222.716,158.451 232.382,148.951 246.5,144C 279.799,142.376 313.133,142.043 346.5,143C 377.979,153.794 388.146,174.961 377,206.5C 369.885,217.942 359.718,225.108 346.5,228C 312.794,228.965 279.127,228.632 245.5,227C 229.944,221.369 220.278,210.535 216.5,194.5 Z"/></g>
<g><path style="opacity:1" fill="#232122" d="M 170.5,147.5 C 170.561,150.05 171.894,151.55 174.5,152C 172.899,152.273 171.399,152.773 170,153.5C 146.241,152.506 122.408,152.172 98.5,152.5C 98.5,151.167 98.5,149.833 98.5,148.5C 91.8333,148.5 85.1667,148.5 78.5,148.5C 78.5,149.833 78.5,151.167 78.5,152.5C 77.1667,152.5 75.8333,152.5 74.5,152.5C 73.8333,157.833 73.1667,157.833 72.5,152.5C 71.1667,152.5 69.8333,152.5 68.5,152.5C 68.9202,150.326 68.9202,148.326 68.5,146.5C 66.7219,146.431 64.8886,146.097 63,145.5C 62.2496,146.126 61.4162,146.626 60.5,147C 62.7725,148.619 64.7725,150.452 66.5,152.5C 66.1667,153.167 65.8333,153.833 65.5,154.5C 64.1585,152.995 62.4918,152.328 60.5,152.5C 60.6495,151.448 60.4828,150.448 60,149.5C 59.3333,151.5 58.6667,153.5 58,155.5C 56.9887,156.337 55.8221,156.67 54.5,156.5C 54.0583,161.694 53.0583,161.694 51.5,156.5C 50.7864,159.027 50.1197,161.527 49.5,164C 47.1902,164.497 44.8568,164.663 42.5,164.5C 42.6633,166.857 42.4966,169.19 42,171.5C 40.9887,172.337 39.8221,172.67 38.5,172.5C 38.5,173.833 38.5,175.167 38.5,176.5C 39.8333,176.5 41.1667,176.5 42.5,176.5C 42.5,177.833 42.5,179.167 42.5,180.5C 41.1667,180.5 39.8333,180.5 38.5,180.5C 38.5,181.833 38.5,183.167 38.5,184.5C 39.8333,184.5 41.1667,184.5 42.5,184.5C 42.5,188.5 42.5,192.5 42.5,196.5C 43.8333,196.5 45.1667,196.5 46.5,196.5C 46.189,203.09 46.5223,209.59 47.5,216C 89.832,216.5 132.165,216.667 174.5,216.5C 174.5,215.167 174.5,213.833 174.5,212.5C 176.481,213.348 178.481,213.848 180.5,214C 179.167,212.16 179.334,211.66 181,212.5C 181.637,210.697 182.803,209.364 184.5,208.5C 183.833,208.167 183.167,207.833 182.5,207.5C 184.045,206.548 185.712,206.215 187.5,206.5C 185.992,203.86 186.326,201.527 188.5,199.5C 187.559,199.511 186.892,199.011 186.5,198C 186.525,188.291 186.525,178.624 186.5,169C 182.514,168.501 178.514,168.334 174.5,168.5C 174.784,165.223 174.451,162.057 173.5,159C 175.866,158.438 178.199,158.604 180.5,159.5C 181.713,159.253 182.38,158.586 182.5,157.5C 189.959,165.023 193.626,174.19 193.5,185C 192.792,206.049 182.459,220.049 162.5,227C 129.214,228.638 95.8808,228.972 62.5,228C 47.2058,225.196 36.5392,216.696 30.5,202.5C 28.127,195.038 27.127,187.371 27.5,179.5C 31.1279,159.704 42.7946,147.537 62.5,143C 93.5,142.333 124.5,142.333 155.5,143C 160.802,143.601 165.802,145.101 170.5,147.5 Z"/></g>
<g><path style="opacity:1" fill="#b7b7b7" d="M 27.5,179.5 C 27.127,187.371 28.127,195.038 30.5,202.5C 28.1703,200.458 27.0036,197.792 27,194.5C 26.1837,189.316 26.3503,184.316 27.5,179.5 Z"/></g>
<g><path style="opacity:1" fill="#c4c1c2" d="M 217.5,172.5 C 215.287,179.733 214.953,187.066 216.5,194.5C 215.778,194.082 215.278,193.416 215,192.5C 214.333,186.5 214.333,180.5 215,174.5C 215.417,173.244 216.25,172.577 217.5,172.5 Z"/></g>
<g><path style="opacity:1" fill="#222121" d="M 175.5,324.5 C 174.506,315.348 174.173,306.015 174.5,296.5C 169.167,296.5 163.833,296.5 158.5,296.5C 158.5,291.167 158.5,285.833 158.5,280.5C 156.5,280.5 154.5,280.5 152.5,280.5C 152.466,276.37 151.799,272.37 150.5,268.5C 147.833,268.5 145.167,268.5 142.5,268.5C 142.5,269.833 142.5,271.167 142.5,272.5C 141.167,272.5 139.833,272.5 138.5,272.5C 138.5,275.167 138.5,277.833 138.5,280.5C 132.5,280.5 126.5,280.5 120.5,280.5C 120.466,276.37 119.799,272.37 118.5,268.5C 115.833,268.5 113.167,268.5 110.5,268.5C 110.5,269.833 110.5,271.167 110.5,272.5C 109.167,272.5 107.833,272.5 106.5,272.5C 106.5,275.167 106.5,277.833 106.5,280.5C 100.5,280.5 94.5,280.5 88.5,280.5C 88.4657,276.37 87.799,272.37 86.5,268.5C 83.8333,268.5 81.1667,268.5 78.5,268.5C 78.5,269.833 78.5,271.167 78.5,272.5C 77.1667,272.5 75.8333,272.5 74.5,272.5C 74.5,275.167 74.5,277.833 74.5,280.5C 71.8333,280.5 69.1667,280.5 66.5,280.5C 66.5,279.167 66.5,277.833 66.5,276.5C 65.1667,276.5 63.8333,276.5 62.5,276.5C 62.5,275.167 62.5,273.833 62.5,272.5C 60.5,272.5 58.5,272.5 56.5,272.5C 56.5,271.167 56.5,269.833 56.5,268.5C 53.6711,268.675 52.0045,267.342 51.5,264.5C 50.9955,267.342 49.3289,268.675 46.5,268.5C 46.5,272.5 46.5,276.5 46.5,280.5C 49.5,280.167 50.8333,281.5 50.5,284.5C 49.1667,284.5 47.8333,284.5 46.5,284.5C 46.5,285.833 46.5,287.167 46.5,288.5C 45.1667,288.5 43.8333,288.5 42.5,288.5C 42.5,289.833 42.5,291.167 42.5,292.5C 41.1667,292.5 39.8333,292.5 38.5,292.5C 38.5,293.833 38.5,295.167 38.5,296.5C 39.8333,296.5 41.1667,296.5 42.5,296.5C 42.5,297.833 42.5,299.167 42.5,300.5C 43.8333,300.5 45.1667,300.5 46.5,300.5C 46.5,304.5 46.5,308.5 46.5,312.5C 51.8333,312.5 57.1667,312.5 62.5,312.5C 62.1718,317.875 62.5052,323.208 63.5,328.5C 66.5367,328.811 69.7033,328.478 73,327.5C 77.6118,328.609 77.4452,329.609 72.5,330.5C 73.7287,331.281 75.062,331.781 76.5,332C 71.744,331.976 67.0774,332.142 62.5,332.5C 47.3367,329.334 36.67,320.667 30.5,306.5C 28.0732,299.405 27.0732,292.072 27.5,284.5C 30.3523,267.144 40.0189,255.31 56.5,249C 74.1166,247.86 91.7833,247.36 109.5,247.5C 127.542,247.367 145.542,247.867 163.5,249C 187.571,258.972 197.071,276.806 192,302.5C 189.132,311.944 183.632,319.277 175.5,324.5 Z"/></g>
<g><path style="opacity:1" fill="#818383" d="M 646.5,247.5 C 679.502,247.333 712.502,247.5 745.5,248C 762.462,252.294 773.629,262.794 779,279.5C 783.214,303.884 774.047,321.05 751.5,331C 748.529,331.794 745.529,332.461 742.5,333C 710.833,333.667 679.167,333.667 647.5,333C 623.145,324.969 611.979,308.136 614,282.5C 618.486,264.809 629.319,253.143 646.5,247.5 Z"/></g>
<g><path style="opacity:1" fill="#241f21" d="M 175.5,324.5 C 169.499,329.491 162.499,332.324 154.5,333C 123.664,333.831 92.9973,333.664 62.5,332.5C 67.0774,332.142 71.744,331.976 76.5,332C 75.062,331.781 73.7287,331.281 72.5,330.5C 77.4452,329.609 77.6118,328.609 73,327.5C 69.7033,328.478 66.5367,328.811 63.5,328.5C 62.5052,323.208 62.1718,317.875 62.5,312.5C 57.1667,312.5 51.8333,312.5 46.5,312.5C 46.5,308.5 46.5,304.5 46.5,300.5C 45.1667,300.5 43.8333,300.5 42.5,300.5C 42.5,299.167 42.5,297.833 42.5,296.5C 41.1667,296.5 39.8333,296.5 38.5,296.5C 38.5,295.167 38.5,293.833 38.5,292.5C 39.8333,292.5 41.1667,292.5 42.5,292.5C 42.5,291.167 42.5,289.833 42.5,288.5C 43.8333,288.5 45.1667,288.5 46.5,288.5C 46.5,287.167 46.5,285.833 46.5,284.5C 47.8333,284.5 49.1667,284.5 50.5,284.5C 50.8333,281.5 49.5,280.167 46.5,280.5C 46.5,276.5 46.5,272.5 46.5,268.5C 49.3289,268.675 50.9955,267.342 51.5,264.5C 52.0045,267.342 53.6711,268.675 56.5,268.5C 56.5,269.833 56.5,271.167 56.5,272.5C 58.5,272.5 60.5,272.5 62.5,272.5C 62.5,273.833 62.5,275.167 62.5,276.5C 63.8333,276.5 65.1667,276.5 66.5,276.5C 66.5,277.833 66.5,279.167 66.5,280.5C 69.1667,280.5 71.8333,280.5 74.5,280.5C 74.5,277.833 74.5,275.167 74.5,272.5C 75.8333,272.5 77.1667,272.5 78.5,272.5C 78.5,271.167 78.5,269.833 78.5,268.5C 81.1667,268.5 83.8333,268.5 86.5,268.5C 87.799,272.37 88.4657,276.37 88.5,280.5C 94.5,280.5 100.5,280.5 106.5,280.5C 106.5,277.833 106.5,275.167 106.5,272.5C 107.833,272.5 109.167,272.5 110.5,272.5C 110.5,271.167 110.5,269.833 110.5,268.5C 113.167,268.5 115.833,268.5 118.5,268.5C 119.799,272.37 120.466,276.37 120.5,280.5C 126.5,280.5 132.5,280.5 138.5,280.5C 138.5,277.833 138.5,275.167 138.5,272.5C 139.833,272.5 141.167,272.5 142.5,272.5C 142.5,271.167 142.5,269.833 142.5,268.5C 145.167,268.5 147.833,268.5 150.5,268.5C 151.799,272.37 152.466,276.37 152.5,280.5C 154.5,280.5 156.5,280.5 158.5,280.5C 158.5,285.833 158.5,291.167 158.5,296.5C 163.833,296.5 169.167,296.5 174.5,296.5C 174.173,306.015 174.506,315.348 175.5,324.5 Z"/></g>
<g><path style="opacity:1" fill="#818383" d="M 458.5,247.5 C 491.168,247.333 523.835,247.5 556.5,248C 578.545,253.203 590.211,267.036 591.5,289.5C 590.178,313.324 577.845,327.824 554.5,333C 522.833,333.667 491.167,333.667 459.5,333C 434.76,325.247 423.593,308.413 426,282.5C 430.155,264.515 440.989,252.849 458.5,247.5 Z"/></g>
<g><path style="opacity:1" fill="#c6c6c6" d="M 27.5,284.5 C 27.0732,292.072 28.0732,299.405 30.5,306.5C 28.3862,305.64 27.2195,303.973 27,301.5C 26.1816,295.651 26.3483,289.985 27.5,284.5 Z"/></g>
<g><path style="opacity:1" fill="#232223" d="M 180.5,425.5 C 180.401,421.998 182.067,419.164 185.5,417C 184.376,416.751 183.376,416.251 182.5,415.5C 184.006,414.253 185.506,414.253 187,415.5C 187.167,415 187.333,414.5 187.5,414C 186.744,407.029 186.411,399.863 186.5,392.5C 182.5,392.5 178.5,392.5 174.5,392.5C 174.831,384.472 174.498,376.472 173.5,368.5C 172.77,367.066 171.77,365.9 170.5,365C 166.514,364.501 162.514,364.334 158.5,364.5C 158.5,363.167 158.5,361.833 158.5,360.5C 147.833,360.5 137.167,360.5 126.5,360.5C 126.5,361.833 126.5,363.167 126.5,364.5C 124.5,364.5 122.5,364.5 120.5,364.5C 120.5,363.167 120.5,361.833 120.5,360.5C 119.167,360.5 117.833,360.5 116.5,360.5C 115.833,355.167 115.167,355.167 114.5,360.5C 109.833,360.5 105.167,360.5 100.5,360.5C 99.8333,355.167 99.1667,355.167 98.5,360.5C 95.8333,360.5 93.1667,360.5 90.5,360.5C 90.8282,365.875 90.4948,371.208 89.5,376.5C 88.6243,370.748 86.6243,365.415 83.5,360.5C 82.5713,361.689 82.238,363.022 82.5,364.5C 81.1667,364.5 79.8333,364.5 78.5,364.5C 78.5,365.833 78.5,367.167 78.5,368.5C 77.1667,368.5 75.8333,368.5 74.5,368.5C 74.5,371.167 74.5,373.833 74.5,376.5C 71.8333,376.5 69.1667,376.5 66.5,376.5C 66.5,375.167 66.5,373.833 66.5,372.5C 64.8967,372.688 63.5634,372.188 62.5,371C 65.7631,370.936 68.7631,370.102 71.5,368.5C 71.8333,367.833 72.1667,367.167 72.5,366.5C 71.3489,364.675 70.6822,362.675 70.5,360.5C 68.5,360.5 66.5,360.5 64.5,360.5C 64.3671,363.896 63.3671,364.229 61.5,361.5C 59.3412,364.469 58.1745,367.803 58,371.5C 56.9887,372.337 55.8221,372.67 54.5,372.5C 54.8333,375.5 53.5,376.833 50.5,376.5C 49.7462,380.016 48.4129,383.349 46.5,386.5C 47.1667,387.833 47.8333,389.167 48.5,390.5C 46.8813,393.642 46.2146,396.975 46.5,400.5C 45.1667,400.5 43.8333,400.5 42.5,400.5C 42.5,401.833 42.5,403.167 42.5,404.5C 41.1667,404.5 39.8333,404.5 38.5,404.5C 38.5,405.833 38.5,407.167 38.5,408.5C 39.8333,408.5 41.1667,408.5 42.5,408.5C 42.5,409.833 42.5,411.167 42.5,412.5C 43.8333,412.5 45.1667,412.5 46.5,412.5C 46.3343,416.846 46.501,421.179 47,425.5C 47.6667,422.833 48.3333,422.833 49,425.5C 49.3333,424.833 49.6667,424.167 50,423.5C 54.0659,424.464 58.2325,424.797 62.5,424.5C 62.5,425.833 62.5,427.167 62.5,428.5C 67.8333,428.5 73.1667,428.5 78.5,428.5C 78.5,431.167 78.5,433.833 78.5,436.5C 74.6095,436.728 70.7762,436.394 67,435.5C 65.9701,435.836 65.4701,436.503 65.5,437.5C 45.979,434.65 33.6457,423.65 28.5,404.5C 27.7255,399.203 27.3921,393.87 27.5,388.5C 31.2352,370.93 41.5686,359.097 58.5,353C 74.9494,351.863 91.4494,351.363 108,351.5C 125.532,351.385 143.032,351.885 160.5,353C 186.297,361.753 196.797,379.587 192,406.5C 189.955,414.017 186.122,420.35 180.5,425.5 Z"/></g>
<g><path style="opacity:1" fill="#241f21" d="M 363.5,429.5 C 357.477,434.511 350.477,437.178 342.5,437.5C 314.209,436.683 285.875,436.183 257.5,436C 254.332,435.418 253.999,434.418 256.5,433C 254.679,430.544 254.012,427.711 254.5,424.5C 249.167,424.5 243.833,424.5 238.5,424.5C 238.5,415.167 238.5,405.833 238.5,396.5C 237.167,396.5 235.833,396.5 234.5,396.5C 234.762,395.022 234.429,393.689 233.5,392.5C 232.833,395.167 232.167,397.833 231.5,400.5C 227.739,403.359 224.739,402.692 222.5,398.5C 224.192,395.299 225.526,391.965 226.5,388.5C 229.167,388.5 231.833,388.5 234.5,388.5C 234.5,387.167 234.5,385.833 234.5,384.5C 235.833,384.5 237.167,384.5 238.5,384.5C 238.5,383.167 238.5,381.833 238.5,380.5C 239.833,380.5 241.167,380.5 242.5,380.5C 242.5,379.167 242.5,377.833 242.5,376.5C 243.833,376.5 245.167,376.5 246.5,376.5C 246.5,375.167 246.5,373.833 246.5,372.5C 247.833,372.5 249.167,372.5 250.5,372.5C 250.099,368.435 251.099,364.769 253.5,361.5C 255.367,364.229 256.367,363.896 256.5,360.5C 258.5,360.5 260.5,360.5 262.5,360.5C 262.682,362.675 263.349,364.675 264.5,366.5C 264.167,367.167 263.833,367.833 263.5,368.5C 260.702,369.953 257.702,370.953 254.5,371.5C 255.689,372.429 257.022,372.762 258.5,372.5C 258.5,373.833 258.5,375.167 258.5,376.5C 261.167,376.5 263.833,376.5 266.5,376.5C 266.5,371.167 266.5,365.833 266.5,360.5C 269.167,360.5 271.833,360.5 274.5,360.5C 275.167,355.167 275.833,355.167 276.5,360.5C 281.167,360.5 285.833,360.5 290.5,360.5C 291.167,355.167 291.833,355.167 292.5,360.5C 293.833,360.5 295.167,360.5 296.5,360.5C 297.167,365.833 297.833,365.833 298.5,360.5C 301.167,360.5 303.833,360.5 306.5,360.5C 307.167,355.167 307.833,355.167 308.5,360.5C 309.833,360.5 311.167,360.5 312.5,360.5C 313.167,365.833 313.833,365.833 314.5,360.5C 317.167,360.5 319.833,360.5 322.5,360.5C 323.167,355.167 323.833,355.167 324.5,360.5C 325.833,360.5 327.167,360.5 328.5,360.5C 329.167,365.833 329.833,365.833 330.5,360.5C 331.833,360.5 333.167,360.5 334.5,360.5C 334.5,359.167 334.5,357.833 334.5,356.5C 336.819,355.833 339.153,355.666 341.5,356C 341.833,356.333 342.167,356.667 342.5,357C 341.027,357.71 340.36,358.876 340.5,360.5C 341.833,360.5 343.167,360.5 344.5,360.5C 344.942,365.694 345.942,365.694 347.5,360.5C 348.167,361.167 348.833,361.833 349.5,362.5C 350.493,367.12 350.827,371.786 350.5,376.5C 355.833,376.5 361.167,376.5 366.5,376.5C 366.333,390.837 366.5,405.171 367,419.5C 367.92,419.93 368.753,420.264 369.5,420.5C 367.827,422.086 365.827,422.753 363.5,422.5C 363.5,424.833 363.5,427.167 363.5,429.5 Z"/></g>
<g><path style="opacity:1" fill="#241f21" d="M 180.5,425.5 C 173.085,432.871 164.085,437.038 153.5,438C 124.095,438.824 94.7615,438.658 65.5,437.5C 65.4701,436.503 65.9701,435.836 67,435.5C 70.7762,436.394 74.6095,436.728 78.5,436.5C 78.5,433.833 78.5,431.167 78.5,428.5C 73.1667,428.5 67.8333,428.5 62.5,428.5C 62.5,427.167 62.5,425.833 62.5,424.5C 58.2325,424.797 54.0659,424.464 50,423.5C 49.6667,424.167 49.3333,424.833 49,425.5C 48.3333,422.833 47.6667,422.833 47,425.5C 46.501,421.179 46.3343,416.846 46.5,412.5C 45.1667,412.5 43.8333,412.5 42.5,412.5C 42.5,411.167 42.5,409.833 42.5,408.5C 41.1667,408.5 39.8333,408.5 38.5,408.5C 38.5,407.167 38.5,405.833 38.5,404.5C 39.8333,404.5 41.1667,404.5 42.5,404.5C 42.5,403.167 42.5,401.833 42.5,400.5C 43.8333,400.5 45.1667,400.5 46.5,400.5C 46.2146,396.975 46.8813,393.642 48.5,390.5C 47.8333,389.167 47.1667,387.833 46.5,386.5C 48.4129,383.349 49.7462,380.016 50.5,376.5C 53.5,376.833 54.8333,375.5 54.5,372.5C 55.8221,372.67 56.9887,372.337 58,371.5C 58.1745,367.803 59.3412,364.469 61.5,361.5C 63.3671,364.229 64.3671,363.896 64.5,360.5C 66.5,360.5 68.5,360.5 70.5,360.5C 70.6822,362.675 71.3489,364.675 72.5,366.5C 72.1667,367.167 71.8333,367.833 71.5,368.5C 68.7631,370.102 65.7631,370.936 62.5,371C 63.5634,372.188 64.8967,372.688 66.5,372.5C 66.5,373.833 66.5,375.167 66.5,376.5C 69.1667,376.5 71.8333,376.5 74.5,376.5C 74.5,373.833 74.5,371.167 74.5,368.5C 75.8333,368.5 77.1667,368.5 78.5,368.5C 78.5,367.167 78.5,365.833 78.5,364.5C 79.8333,364.5 81.1667,364.5 82.5,364.5C 82.238,363.022 82.5713,361.689 83.5,360.5C 86.6243,365.415 88.6243,370.748 89.5,376.5C 90.4948,371.208 90.8282,365.875 90.5,360.5C 93.1667,360.5 95.8333,360.5 98.5,360.5C 99.1667,355.167 99.8333,355.167 100.5,360.5C 105.167,360.5 109.833,360.5 114.5,360.5C 115.167,355.167 115.833,355.167 116.5,360.5C 117.833,360.5 119.167,360.5 120.5,360.5C 120.5,361.833 120.5,363.167 120.5,364.5C 122.5,364.5 124.5,364.5 126.5,364.5C 126.5,363.167 126.5,361.833 126.5,360.5C 137.167,360.5 147.833,360.5 158.5,360.5C 158.5,361.833 158.5,363.167 158.5,364.5C 162.514,364.334 166.514,364.501 170.5,365C 171.77,365.9 172.77,367.066 173.5,368.5C 174.498,376.472 174.831,384.472 174.5,392.5C 178.5,392.5 182.5,392.5 186.5,392.5C 186.411,399.863 186.744,407.029 187.5,414C 187.333,414.5 187.167,415 187,415.5C 185.506,414.253 184.006,414.253 182.5,415.5C 183.376,416.251 184.376,416.751 185.5,417C 182.067,419.164 180.401,421.998 180.5,425.5 Z"/></g>
<g><path style="opacity:1" fill="#818384" d="M 648.5,351.5 C 679.502,351.333 710.502,351.5 741.5,352C 765.596,356.065 778.263,370.231 779.5,394.5C 778.194,418.311 765.86,432.811 742.5,438C 712.5,438.667 682.5,438.667 652.5,438C 628.627,433.723 615.627,419.557 613.5,395.5C 614.801,372.537 626.468,357.871 648.5,351.5 Z"/></g>
<g><path style="opacity:1" fill="#acacac" d="M 27.5,388.5 C 27.3921,393.87 27.7255,399.203 28.5,404.5C 27.7784,404.082 27.2784,403.416 27,402.5C 26.1849,397.648 26.3516,392.981 27.5,388.5 Z"/></g>
<g><path style="opacity:1" fill="#c7c7c7" d="M 216.5,384.5 C 215.386,391.813 215.386,399.147 216.5,406.5C 215.778,406.082 215.278,405.416 215,404.5C 214.333,398.167 214.333,391.833 215,385.5C 215.383,384.944 215.883,384.611 216.5,384.5 Z"/></g>
<g><path style="opacity:1" fill="#252324" d="M 363.5,429.5 C 363.5,427.167 363.5,424.833 363.5,422.5C 365.827,422.753 367.827,422.086 369.5,420.5C 368.753,420.264 367.92,419.93 367,419.5C 366.5,405.171 366.333,390.837 366.5,376.5C 361.167,376.5 355.833,376.5 350.5,376.5C 350.827,371.786 350.493,367.12 349.5,362.5C 348.833,361.833 348.167,361.167 347.5,360.5C 345.942,365.694 344.942,365.694 344.5,360.5C 343.167,360.5 341.833,360.5 340.5,360.5C 340.36,358.876 341.027,357.71 342.5,357C 342.167,356.667 341.833,356.333 341.5,356C 339.153,355.666 336.819,355.833 334.5,356.5C 334.5,357.833 334.5,359.167 334.5,360.5C 333.167,360.5 331.833,360.5 330.5,360.5C 329.833,365.833 329.167,365.833 328.5,360.5C 327.167,360.5 325.833,360.5 324.5,360.5C 323.833,355.167 323.167,355.167 322.5,360.5C 319.833,360.5 317.167,360.5 314.5,360.5C 313.833,365.833 313.167,365.833 312.5,360.5C 311.167,360.5 309.833,360.5 308.5,360.5C 307.833,355.167 307.167,355.167 306.5,360.5C 303.833,360.5 301.167,360.5 298.5,360.5C 297.833,365.833 297.167,365.833 296.5,360.5C 295.167,360.5 293.833,360.5 292.5,360.5C 291.833,355.167 291.167,355.167 290.5,360.5C 285.833,360.5 281.167,360.5 276.5,360.5C 275.833,355.167 275.167,355.167 274.5,360.5C 271.833,360.5 269.167,360.5 266.5,360.5C 266.5,365.833 266.5,371.167 266.5,376.5C 263.833,376.5 261.167,376.5 258.5,376.5C 258.5,375.167 258.5,373.833 258.5,372.5C 257.022,372.762 255.689,372.429 254.5,371.5C 257.702,370.953 260.702,369.953 263.5,368.5C 263.833,367.833 264.167,367.167 264.5,366.5C 263.349,364.675 262.682,362.675 262.5,360.5C 260.5,360.5 258.5,360.5 256.5,360.5C 256.367,363.896 255.367,364.229 253.5,361.5C 251.099,364.769 250.099,368.435 250.5,372.5C 249.167,372.5 247.833,372.5 246.5,372.5C 246.5,373.833 246.5,375.167 246.5,376.5C 245.167,376.5 243.833,376.5 242.5,376.5C 242.5,377.833 242.5,379.167 242.5,380.5C 241.167,380.5 239.833,380.5 238.5,380.5C 238.5,381.833 238.5,383.167 238.5,384.5C 237.167,384.5 235.833,384.5 234.5,384.5C 234.5,385.833 234.5,387.167 234.5,388.5C 231.833,388.5 229.167,388.5 226.5,388.5C 225.526,391.965 224.192,395.299 222.5,398.5C 224.739,402.692 227.739,403.359 231.5,400.5C 232.167,397.833 232.833,395.167 233.5,392.5C 234.429,393.689 234.762,395.022 234.5,396.5C 235.833,396.5 237.167,396.5 238.5,396.5C 238.5,405.833 238.5,415.167 238.5,424.5C 243.833,424.5 249.167,424.5 254.5,424.5C 254.012,427.711 254.679,430.544 256.5,433C 253.999,434.418 254.332,435.418 257.5,436C 285.875,436.183 314.209,436.683 342.5,437.5C 328.004,438.167 313.337,438.5 298.5,438.5C 281.797,438.621 265.13,438.121 248.5,437C 232.423,432.421 221.756,422.254 216.5,406.5C 215.386,399.147 215.386,391.813 216.5,384.5C 221.289,368.545 231.622,358.045 247.5,353C 279.127,351.371 310.794,351.037 342.5,352C 370.483,357.313 383.317,374.147 381,402.5C 379.617,409.929 376.617,416.596 372,422.5C 369.564,425.447 366.731,427.78 363.5,429.5 Z"/></g>
<g><path style="opacity:1" fill="#232122" d="M 366.5,531.5 C 365.127,531.657 363.793,531.49 362.5,531C 363.536,529.383 364.703,529.216 366,530.5C 366.5,516.504 366.667,502.504 366.5,488.5C 364.5,488.5 362.5,488.5 360.5,488.5C 360.466,484.37 359.799,480.37 358.5,476.5C 355.833,476.5 353.167,476.5 350.5,476.5C 350.5,477.833 350.5,479.167 350.5,480.5C 349.167,480.5 347.833,480.5 346.5,480.5C 346.5,483.167 346.5,485.833 346.5,488.5C 343.833,488.5 341.167,488.5 338.5,488.5C 338.5,486.5 338.5,484.5 338.5,482.5C 341.491,482.67 343.491,481.337 344.5,478.5C 344.471,476.971 343.804,475.804 342.5,475C 339.018,473.145 335.351,472.478 331.5,473C 330.781,475.556 329.114,476.723 326.5,476.5C 326.5,477.833 326.5,479.167 326.5,480.5C 325.167,480.5 323.833,480.5 322.5,480.5C 322.5,478.5 322.5,476.5 322.5,474.5C 321.167,474.5 319.833,474.5 318.5,474.5C 318.853,472.365 318.02,471.032 316,470.5C 314.403,471.885 312.57,472.551 310.5,472.5C 310.67,473.822 310.337,474.989 309.5,476C 307.19,476.497 304.857,476.663 302.5,476.5C 302.5,477.833 302.5,479.167 302.5,480.5C 301.167,480.5 299.833,480.5 298.5,480.5C 298.5,483.167 298.5,485.833 298.5,488.5C 295.833,488.5 293.167,488.5 290.5,488.5C 290.5,486.5 290.5,484.5 290.5,482.5C 293.491,482.67 295.491,481.337 296.5,478.5C 295.573,475.409 293.906,472.743 291.5,470.5C 289.104,472.067 286.437,472.9 283.5,473C 282.781,475.556 281.114,476.723 278.5,476.5C 278.5,477.833 278.5,479.167 278.5,480.5C 277.167,480.5 275.833,480.5 274.5,480.5C 274.5,478.5 274.5,476.5 274.5,474.5C 273.167,474.5 271.833,474.5 270.5,474.5C 270.853,472.365 270.02,471.032 268,470.5C 266.403,471.885 264.57,472.551 262.5,472.5C 262.67,473.822 262.337,474.989 261.5,476C 259.19,476.497 256.857,476.663 254.5,476.5C 254.5,477.833 254.5,479.167 254.5,480.5C 253.167,480.5 251.833,480.5 250.5,480.5C 250.5,483.167 250.5,485.833 250.5,488.5C 247.833,488.5 245.167,488.5 242.5,488.5C 242.5,487.167 242.5,485.833 242.5,484.5C 241.167,484.5 239.833,484.5 238.5,484.5C 238.5,487.167 238.5,489.833 238.5,492.5C 236.5,492.5 234.5,492.5 232.5,492.5C 232.5,491.167 232.5,489.833 232.5,488.5C 229.833,488.5 227.167,488.5 224.5,488.5C 224.421,490.666 223.754,492.666 222.5,494.5C 223.453,496.455 224.787,498.122 226.5,499.5C 224.995,500.842 224.328,502.508 224.5,504.5C 222.365,504.147 221.032,504.98 220.5,507C 221.797,509.765 223.464,512.265 225.5,514.5C 226.466,516.396 226.799,518.396 226.5,520.5C 227.833,520.5 229.167,520.5 230.5,520.5C 230.5,521.833 230.5,523.167 230.5,524.5C 233.167,524.5 235.833,524.5 238.5,524.5C 238.984,528.827 238.318,532.827 236.5,536.5C 228.342,531.342 222.342,524.342 218.5,515.5C 216.127,508.038 215.127,500.371 215.5,492.5C 219.336,474.159 230.336,462.326 248.5,457C 280.833,456.333 313.167,456.333 345.5,457C 372.036,463.877 383.87,481.043 381,508.5C 378.654,517.886 373.82,525.553 366.5,531.5 Z"/></g>
<g><path style="opacity:1" fill="#818383" d="M 459.5,456.5 C 492.502,456.333 525.502,456.5 558.5,457C 588.617,468.329 598.117,489.162 587,519.5C 580.149,532.005 569.649,539.505 555.5,542C 523.5,542.667 491.5,542.667 459.5,542C 435.081,534.706 423.914,518.206 426,492.5C 429.775,473.56 440.942,461.56 459.5,456.5 Z"/></g>
<g><path style="opacity:1" fill="#241f21" d="M 366.5,531.5 C 360.404,537.38 353.07,540.88 344.5,542C 312.833,542.667 281.167,542.667 249.5,542C 244.88,540.685 240.546,538.852 236.5,536.5C 238.318,532.827 238.984,528.827 238.5,524.5C 235.833,524.5 233.167,524.5 230.5,524.5C 230.5,523.167 230.5,521.833 230.5,520.5C 229.167,520.5 227.833,520.5 226.5,520.5C 226.799,518.396 226.466,516.396 225.5,514.5C 223.464,512.265 221.797,509.765 220.5,507C 221.032,504.98 222.365,504.147 224.5,504.5C 224.328,502.508 224.995,500.842 226.5,499.5C 224.787,498.122 223.453,496.455 222.5,494.5C 223.754,492.666 224.421,490.666 224.5,488.5C 227.167,488.5 229.833,488.5 232.5,488.5C 232.5,489.833 232.5,491.167 232.5,492.5C 234.5,492.5 236.5,492.5 238.5,492.5C 238.5,489.833 238.5,487.167 238.5,484.5C 239.833,484.5 241.167,484.5 242.5,484.5C 242.5,485.833 242.5,487.167 242.5,488.5C 245.167,488.5 247.833,488.5 250.5,488.5C 250.5,485.833 250.5,483.167 250.5,480.5C 251.833,480.5 253.167,480.5 254.5,480.5C 254.5,479.167 254.5,477.833 254.5,476.5C 256.857,476.663 259.19,476.497 261.5,476C 262.337,474.989 262.67,473.822 262.5,472.5C 264.57,472.551 266.403,471.885 268,470.5C 270.02,471.032 270.853,472.365 270.5,474.5C 271.833,474.5 273.167,474.5 274.5,474.5C 274.5,476.5 274.5,478.5 274.5,480.5C 275.833,480.5 277.167,480.5 278.5,480.5C 278.5,479.167 278.5,477.833 278.5,476.5C 281.114,476.723 282.781,475.556 283.5,473C 286.437,472.9 289.104,472.067 291.5,470.5C 293.906,472.743 295.573,475.409 296.5,478.5C 295.491,481.337 293.491,482.67 290.5,482.5C 290.5,484.5 290.5,486.5 290.5,488.5C 293.167,488.5 295.833,488.5 298.5,488.5C 298.5,485.833 298.5,483.167 298.5,480.5C 299.833,480.5 301.167,480.5 302.5,480.5C 302.5,479.167 302.5,477.833 302.5,476.5C 304.857,476.663 307.19,476.497 309.5,476C 310.337,474.989 310.67,473.822 310.5,472.5C 312.57,472.551 314.403,471.885 316,470.5C 318.02,471.032 318.853,472.365 318.5,474.5C 319.833,474.5 321.167,474.5 322.5,474.5C 322.5,476.5 322.5,478.5 322.5,480.5C 323.833,480.5 325.167,480.5 326.5,480.5C 326.5,479.167 326.5,477.833 326.5,476.5C 329.114,476.723 330.781,475.556 331.5,473C 335.351,472.478 339.018,473.145 342.5,475C 343.804,475.804 344.471,476.971 344.5,478.5C 343.491,481.337 341.491,482.67 338.5,482.5C 338.5,484.5 338.5,486.5 338.5,488.5C 341.167,488.5 343.833,488.5 346.5,488.5C 346.5,485.833 346.5,483.167 346.5,480.5C 347.833,480.5 349.167,480.5 350.5,480.5C 350.5,479.167 350.5,477.833 350.5,476.5C 353.167,476.5 355.833,476.5 358.5,476.5C 359.799,480.37 360.466,484.37 360.5,488.5C 362.5,488.5 364.5,488.5 366.5,488.5C 366.667,502.504 366.5,516.504 366,530.5C 364.703,529.216 363.536,529.383 362.5,531C 363.793,531.49 365.127,531.657 366.5,531.5 Z"/></g>
<g><path style="opacity:1" fill="#cacaca" d="M 215.5,492.5 C 215.127,500.371 216.127,508.038 218.5,515.5C 217.069,514.097 215.902,512.431 215,510.5C 214.181,504.319 214.347,498.319 215.5,492.5 Z"/></g>
</svg>
